<svg xmlns="http://www.w3.org/2000/svg" width="50" height="50" fill="none"><g clip-path="url(#a)"><path fill="#000" d="M3 28.51c.21.03.42.05.62.05H38.9l-.77.35c-.75.36-1.44.84-2.02 1.43l-9.9 9.9a3.7 3.7 0 0 0-.51 4.74 3.58 3.58 0 0 0 5.36.46l17.9-17.89a3.58 3.58 0 0 0 0-5.06L31.05 4.6a3.58 3.58 0 0 0-5.36.36c-1 1.5-.79 3.5.52 4.74l9.87 9.91c.52.53 1.13.97 1.79 1.3l1.07.5H3.82a3.7 3.7 0 0 0-3.77 3A3.58 3.58 0 0 0 3 28.5Z"/></g><defs><clipPath id="a"><path fill="#fff" d="M50 50H0V0h50z"/></clipPath></defs></svg>