<svg xmlns="http://www.w3.org/2000/svg" width="24" height="24" fill="none"><path fill="#000" fill-rule="evenodd" d="M11.2.8a.8.8 0 0 1 1.6 0v2.7a.8.8 0 0 1-1.6 0V.8Zm.8 15.7a4.5 4.5 0 1 0 0-9 4.5 4.5 0 0 0 0 9Zm0 1.5a6 6 0 1 0 0-12 6 6 0 0 0 0 12Zm0 1.6c-.5 0-.8.4-.8.9v2.7a.8.8 0 1 0 1.6 0v-2.7c0-.5-.3-.9-.8-.9Zm7.3-16a.8.8 0 1 1 1.2 1l-2 2a.81.81 0 1 1-1.1-1.2l2-1.9-.1.1ZM6.6 17.3a.8.8 0 0 0-1.2 0l-1.9 2a.8.8 0 0 0 1.2 1l1.9-1.8c.3-.4.3-.9 0-1.2Zm16.6-6.2a.8.8 0 1 1 0 1.6h-2.7a.8.8 0 1 1 0-1.6h2.7ZM4.4 12c0-.5-.4-.8-.9-.8H.8a.8.8 0 0 0 0 1.6h2.7c.5 0 .9-.3.9-.8Zm16 7.3a.8.8 0 0 1-1 1.2l-2-2a.81.81 0 1 1 1.2-1.1l1.9 2-.1-.1ZM6.7 6.6c.3-.3.3-.8 0-1.2l-2-1.9a.8.8 0 1 0-1 1.2l1.8 1.9c.4.3.9.3 1.2 0Z" clip-rule="evenodd"/></svg>