<svg xmlns="http://www.w3.org/2000/svg" width="30" height="29" fill="none"><path fill="#2B2E4A" d="M15 0C6.71 0 0 6.65 0 14.87 0 21.45 4.3 27 10.26 28.97c.75.13 1.03-.31 1.03-.7l-.02-2.77c-3.77.68-4.74-.91-5.04-1.75-.17-.43-.9-1.75-1.54-2.1-.53-.28-1.28-.97-.02-.99 1.18-.01 2.02 1.08 2.3 1.53 1.35 2.25 3.51 1.62 4.37 1.23.13-.97.53-1.62.96-2-3.34-.37-6.83-1.65-6.83-7.33 0-1.62.59-2.96 1.54-4a5.3 5.3 0 0 1 .15-3.94s1.26-.39 4.13 1.52a14.04 14.04 0 0 1 7.5 0c2.87-1.93 4.12-1.52 4.12-1.52a5.3 5.3 0 0 1 .15 3.94 5.72 5.72 0 0 1 1.54 4c0 5.7-3.5 6.96-6.84 7.34.54.46 1 1.35 1 2.75l-.01 4.09c0 .39.28.85 1.03.7A14.9 14.9 0 0 0 30 14.87C30 6.65 23.29 0 15 0Z"/></svg>