<svg xmlns="http://www.w3.org/2000/svg" width="144" height="32" fill="none"><path fill="#2B2E4A" d="M30.02 9.77c1.28 0 2.45.22 3.5.66a7.58 7.58 0 0 1 4.41 4.7c.4 1.12.59 2.38.59 3.76 0 .46-.15.82-.44 1.06-.3.22-.72.33-1.28.33H26.05a4.75 4.75 0 0 0 1.2 2.73c.87.88 2.16 1.32 3.86 1.32a10.7 10.7 0 0 0 4.12-.91 2.31 2.31 0 0 1 1.5-.26c.44.07.78.27 1.02.58.24.32.38.69.4 1.1.05.41-.04.83-.25 1.24-.22.39-.59.72-1.1.98-.83.47-1.76.8-2.8 1.03-1.03.24-2.03.36-3 .36-2.11 0-3.94-.38-5.47-1.13a8.54 8.54 0 0 1-3.5-3.25 9.87 9.87 0 0 1-1.2-4.96c0-1.85.38-3.46 1.16-4.85a8.27 8.27 0 0 1 3.25-3.29c1.4-.8 3-1.2 4.78-1.2ZM44.49 2c.88 0 1.55.24 2.01.73.49.46.73 1.16.73 2.08v7.73a5.39 5.39 0 0 1 1.79-1.75 6.97 6.97 0 0 1 3.75-1.02c1.59 0 2.96.38 4.13 1.13a7.57 7.57 0 0 1 2.73 3.21c.66 1.39.99 3.04.99 4.96 0 1.93-.33 3.6-.99 5a7.45 7.45 0 0 1-2.77 3.25 7.36 7.36 0 0 1-4.09 1.13 7.03 7.03 0 0 1-3.83-1.06 5.37 5.37 0 0 1-1.78-1.92v.1c0 .9-.24 1.6-.7 2.08-.46.48-1.13.73-2 .73-.88 0-1.56-.25-2.05-.73-.46-.49-.69-1.18-.69-2.08V4.8c0-.92.23-1.62.7-2.08.48-.49 1.17-.73 2.07-.73Zm28.1 7.77c1.93 0 3.6.38 5 1.13a7.97 7.97 0 0 1 3.33 3.21 9.74 9.74 0 0 1 1.2 4.96c0 1.46-.23 2.76-.7 3.9a8.23 8.23 0 0 1-4.92 4.85c-1.17.42-2.47.63-3.9.63-1.92 0-3.6-.38-5.04-1.13a7.97 7.97 0 0 1-3.28-3.25 10.19 10.19 0 0 1-1.17-5c0-1.43.22-2.72.66-3.86a7.99 7.99 0 0 1 4.92-4.78c1.17-.44 2.47-.66 3.9-.66Zm29.94 0c.75 0 1.55.1 2.4.3.86.16 1.7.47 2.52.9.5.22.82.54.99.95a2.17 2.17 0 0 1-.26 2.37c-.24.32-.56.54-.95.66-.38.1-.82.03-1.3-.22a5.72 5.72 0 0 0-2.85-.77 4.8 4.8 0 0 0-1.94.37c-.56.22-1.03.55-1.42.99-.36.41-.66.93-.88 1.56-.2.64-.29 1.37-.29 2.2 0 1.6.4 2.86 1.17 3.79.8.9 1.92 1.35 3.36 1.35.43 0 .9-.05 1.38-.15.49-.12.98-.31 1.46-.58.49-.24.93-.3 1.31-.18.35.1.62.3.83.57l.17.24c.2.3.3.63.32 1.01.05.41-.03.83-.22 1.24-.17.39-.49.7-.95.91-.83.42-1.65.7-2.48.88a10.98 10.98 0 0 1-7.48-.84 8.15 8.15 0 0 1-3.32-3.28 10.19 10.19 0 0 1-1.17-5c0-1.44.22-2.73.66-3.87a7.99 7.99 0 0 1 1.9-2.92 8.43 8.43 0 0 1 3.06-1.82c1.2-.44 2.52-.66 3.98-.66Zm16.14 0c1.1 0 2.1.1 3.03.3.92.19 1.81.5 2.66.94.44.22.75.51.92.88.2.36.25.74.18 1.13-.05.39-.2.74-.44 1.06-.24.31-.56.52-.95.62-.36.1-.79.05-1.27-.15a10.51 10.51 0 0 0-4.05-1.02c-1.1 0-1.89.18-2.38.55-.48.34-.72.77-.72 1.31 0 .41.13.77.4 1.06.29.26.73.45 1.31.55l3.83.69c1.58.26 2.79.8 3.61 1.6a4.2 4.2 0 0 1 1.24 3.21c0 1.85-.73 3.31-2.19 4.38-1.43 1.05-3.35 1.57-5.76 1.57-1.07 0-2.18-.1-3.32-.3-1.12-.19-2.14-.51-3.06-.98a2.48 2.48 0 0 1-1.06-.9c-.2-.4-.28-.79-.26-1.18.03-.39.15-.74.37-1.05.24-.32.54-.53.9-.62.4-.13.82-.09 1.28.1 1 .42 1.92.71 2.74.88.83.17 1.64.26 2.45.26 1.04 0 1.8-.16 2.26-.48.48-.34.73-.78.73-1.31 0-.49-.16-.85-.48-1.1a3.07 3.07 0 0 0-1.38-.5l-3.83-.7a6.39 6.39 0 0 1-3.5-1.64 4.54 4.54 0 0 1-1.21-3.25c0-1.21.34-2.26 1.02-3.14a6.26 6.26 0 0 1 2.81-2.04c1.22-.49 2.6-.73 4.12-.73Zm17.96 0c1.1 0 2.1.1 3.03.3.92.19 1.81.5 2.66.94.44.22.74.51.91.88.2.36.26.74.19 1.13-.05.39-.2.74-.44 1.06-.24.31-.56.52-.95.62-.37.1-.8.05-1.28-.15a10.51 10.51 0 0 0-4.05-1.02c-1.1 0-1.88.18-2.37.55-.48.34-.73.77-.73 1.31 0 .41.14.77.4 1.06.3.26.73.45 1.32.55l3.83.69c1.58.26 2.78.8 3.61 1.6A4.2 4.2 0 0 1 144 22.5c0 1.85-.73 3.31-2.19 4.38-1.43 1.05-3.35 1.57-5.76 1.57-1.07 0-2.18-.1-3.32-.3-1.12-.19-2.14-.51-3.07-.98a2.48 2.48 0 0 1-1.06-.9c-.19-.4-.28-.79-.25-1.18.02-.39.15-.74.36-1.05.25-.32.55-.53.92-.62.38-.13.81-.09 1.27.1 1 .42 1.91.71 2.74.88.83.17 1.64.26 2.44.26 1.05 0 1.8-.16 2.26-.48.5-.34.73-.78.73-1.31 0-.49-.15-.85-.47-1.1a3.07 3.07 0 0 0-1.39-.5l-3.83-.7a6.39 6.39 0 0 1-3.5-1.64 4.54 4.54 0 0 1-1.2-3.25c0-1.21.34-2.26 1.02-3.14a6.26 6.26 0 0 1 2.8-2.04c1.22-.49 2.6-.73 4.13-.73Zm-125.36 0c1.44 0 2.62.28 3.54.84a4.92 4.92 0 0 1 2.08 2.48c.46 1.1.7 2.5.7 4.2v8.28c0 .9-.25 1.6-.73 2.08-.47.48-1.15.73-2.05.73-.87 0-1.55-.25-2.04-.73-.46-.49-.7-1.18-.7-2.08v-8.03c0-1.24-.23-2.13-.69-2.66-.44-.56-1.12-.84-2.04-.84-1.17 0-2.1.36-2.81 1.1a4.1 4.1 0 0 0-1.02 2.91v7.52c0 1.87-.91 2.8-2.74 2.8-.9 0-1.59-.24-2.08-.72-.46-.49-.69-1.18-.69-2.08V12.62c0-.9.23-1.58.7-2.05a2.71 2.71 0 0 1 2-.73c.88 0 1.54.25 2 .73.47.47.7 1.15.7 2.05v.14a5.93 5.93 0 0 1 2.08-2 7.35 7.35 0 0 1 3.8-.99Zm76.3 12.26c.9 0 1.63.26 2.15.77l.21.21c.5.55.74 1.24.74 2.08 0 .93-.28 1.68-.84 2.27-.54.58-1.3.87-2.26.87-.98 0-1.76-.3-2.34-.87a3.13 3.13 0 0 1-.84-2.27c0-.9.28-1.63.84-2.18a3.16 3.16 0 0 1 2.34-.88Zm-36.44-8.14c-.78 0-1.47.19-2.08.55-.58.37-1.04.94-1.38 1.72a7.14 7.14 0 0 0-.51 2.91c0 1.78.36 3.1 1.1 3.98a3.61 3.61 0 0 0 2.87 1.28 3.6 3.6 0 0 0 3.43-2.3 7.4 7.4 0 0 0 .51-2.96c0-1.77-.36-3.07-1.1-3.9a3.57 3.57 0 0 0-2.84-1.28Zm21.47 0c-.78 0-1.47.19-2.08.55-.59.37-1.05.94-1.39 1.72a7.63 7.63 0 0 0-.47 2.91c0 1.78.36 3.1 1.1 3.98a3.57 3.57 0 0 0 2.84 1.28c.8 0 1.5-.2 2.08-.59a3.94 3.94 0 0 0 1.38-1.71 7.4 7.4 0 0 0 .51-2.96c0-1.77-.36-3.07-1.09-3.9a3.61 3.61 0 0 0-2.88-1.28Zm-42.37-.47c-.9 0-1.66.2-2.3.62a3.97 3.97 0 0 0-1.45 1.79c-.21.47-.36 1-.44 1.6h7.9a5.6 5.6 0 0 0-.42-1.97 3.2 3.2 0 0 0-1.28-1.53 3.67 3.67 0 0 0-2-.51Z"/></svg>